<?xml version="1.0" encoding="UTF-8"?>
<svg xmlns="http://www.w3.org/2000/svg" viewBox="0 0 24 24" width="24" height="24">
  <defs>
    <!-- Drop shadow filter -->
    <filter id="dropShadow" x="-50%" y="-50%" width="200%" height="200%">
      <feGaussianBlur in="SourceAlpha" stdDeviation="1.2"/>
      <feOffset dx="0" dy="1" result="offsetblur"/>
      <feComponentTransfer>
        <feFuncA type="linear" slope="0.35"/>
      </feComponentTransfer>
      <feMerge>
        <feMergeNode/>
        <feMergeNode in="SourceGraphic"/>
      </feMerge>
    </filter>
  </defs>

  <!-- Outer border (white stroke) -->
  <path d="M2.002 9.538c-.023.411.207.794.581.966l7.504 3.442 3.442 7.503c.164.356.52.583.909.583l.057-.002a1 1 0 0 0 .894-.686l5.595-17.032c.117-.358.023-.753-.243-1.02s-.66-.358-1.02-.243L2.688 8.645a.997.997 0 0 0-.686.893z"
        fill="white"
        stroke="white"
        stroke-width="1.5"
        stroke-linejoin="round"
        filter="url(#dropShadow)"/>

  <!-- Inner black fill -->
  <path d="M2.002 9.538c-.023.411.207.794.581.966l7.504 3.442 3.442 7.503c.164.356.52.583.909.583l.057-.002a1 1 0 0 0 .894-.686l5.595-17.032c.117-.358.023-.753-.243-1.02s-.66-.358-1.02-.243L2.688 8.645a.997.997 0 0 0-.686.893z"
        fill="black"/>
</svg>
